# xmcd
#
# Track frame offsets:
#  150
#  16584
#  28154
#  49768
#  79647
#  92174
#  110594
#  127221
#  147145
#  165101
#  187229
#  198193
#  224949
#  250405
#  264650
#  285124
#  299384
#  324858
#
# Disc length: 4604 seconds
#
# Revision: 0
# Processed by: cddbd v1.4PL0 Copyright (c) Steve Scherf et al.
# Submitted via: AltoMP3_Maker 3.0
#
DISCID=0711fa12
DTITLE=Delete - Me Please
DYEAR=1900
DGENRE=
TTITLE0=sdfsdg
TTITLE1=Green Day - Time Of Your Life (Acoustic)
TTITLE2=Sarah McLachlan - I Will Remember You
TTITLE3=Rolling Stones - Time Waits for No One
TTITLE4=sdf
TTITLE5=REM - It's the End of the World
TTITLE6=sdfsdf sg
TTITLE7=sdgshh
TTITLE8=Macy Grey - I Try
TTITLE9=U2 - With Or Without You
TTITLE10=Beach Boys - Graduation Day
TTITLE11=234sfh
TTITLE12=Simon and Garfunkel - Graduation Song
TTITLE13=Chris Isaak - Graduation Day
TTITLE14=sdghg
TTITLE15=Third Eye Blind - Graduation Song
TTITLE16=dfhdh
TTITLE17=dfjdj
EXTD=
EXTT0=
EXTT1=
EXTT2=
EXTT3=
EXTT4=
EXTT5=
EXTT6=
EXTT7=
EXTT8=
EXTT9=
EXTT10=
EXTT11=
EXTT12=
EXTT13=
EXTT14=
EXTT15=
EXTT16=
EXTT17=
PLAYORDER=
